<mxfile host="app.diagrams.net" modified="2020-12-07T22:55:09.108Z" agent="5.0 (Windows NT 10.0; Win64; x64) AppleWebKit/537.36 (KHTML, like Gecko) Chrome/86.0.4240.198 Safari/537.36" etag="TnkX80Uw3FdgZoU4lSC_" version="13.10.9" type="github">
  <diagram id="DTMqqLr-wt_MOEMEgq2L" name="Page-1">
    <mxGraphModel dx="868" dy="450" grid="1" gridSize="10" guides="1" tooltips="1" connect="1" arrows="1" fold="1" page="1" pageScale="1" pageWidth="827" pageHeight="1169" math="0" shadow="0">
      <root>
        <mxCell id="0" />
        <mxCell id="1" parent="0" />
        <mxCell id="CcoabBQ-ILqMAUep1loV-14" style="edgeStyle=orthogonalEdgeStyle;rounded=0;orthogonalLoop=1;jettySize=auto;html=1;exitX=0;exitY=0.5;exitDx=0;exitDy=0;entryX=1;entryY=0.5;entryDx=0;entryDy=0;" parent="1" source="CcoabBQ-ILqMAUep1loV-2" target="CcoabBQ-ILqMAUep1loV-4" edge="1">
          <mxGeometry relative="1" as="geometry" />
        </mxCell>
        <mxCell id="CcoabBQ-ILqMAUep1loV-22" style="edgeStyle=orthogonalEdgeStyle;rounded=0;orthogonalLoop=1;jettySize=auto;html=1;exitX=0.5;exitY=1;exitDx=0;exitDy=0;entryX=1;entryY=0.75;entryDx=0;entryDy=0;" parent="1" source="CcoabBQ-ILqMAUep1loV-2" target="CcoabBQ-ILqMAUep1loV-6" edge="1">
          <mxGeometry relative="1" as="geometry" />
        </mxCell>
        <mxCell id="CcoabBQ-ILqMAUep1loV-33" style="edgeStyle=orthogonalEdgeStyle;rounded=0;orthogonalLoop=1;jettySize=auto;html=1;exitX=1;exitY=0.5;exitDx=0;exitDy=0;entryX=0;entryY=0.5;entryDx=0;entryDy=0;" parent="1" source="CcoabBQ-ILqMAUep1loV-2" target="CcoabBQ-ILqMAUep1loV-5" edge="1">
          <mxGeometry relative="1" as="geometry" />
        </mxCell>
        <mxCell id="FvHZIAzcBwomUvP6vizH-8" style="edgeStyle=orthogonalEdgeStyle;rounded=0;orthogonalLoop=1;jettySize=auto;html=1;exitX=0.75;exitY=1;exitDx=0;exitDy=0;entryX=0;entryY=0.75;entryDx=0;entryDy=0;" parent="1" source="CcoabBQ-ILqMAUep1loV-2" target="FvHZIAzcBwomUvP6vizH-1" edge="1">
          <mxGeometry relative="1" as="geometry">
            <Array as="points">
              <mxPoint x="440" y="250" />
              <mxPoint x="440" y="290" />
              <mxPoint x="580" y="290" />
            </Array>
          </mxGeometry>
        </mxCell>
        <mxCell id="vH-IX7zG1O_WucT4hjSr-5" style="edgeStyle=orthogonalEdgeStyle;rounded=0;orthogonalLoop=1;jettySize=auto;html=1;exitX=0.75;exitY=1;exitDx=0;exitDy=0;entryX=0;entryY=0.5;entryDx=0;entryDy=0;" edge="1" parent="1" source="CcoabBQ-ILqMAUep1loV-2" target="vH-IX7zG1O_WucT4hjSr-1">
          <mxGeometry relative="1" as="geometry">
            <mxPoint x="420" y="580" as="targetPoint" />
          </mxGeometry>
        </mxCell>
        <mxCell id="CcoabBQ-ILqMAUep1loV-2" value="" style="rounded=0;whiteSpace=wrap;html=1;fillColor=#bac8d3;strokeColor=#23445d;" parent="1" vertex="1">
          <mxGeometry x="360" y="210" width="80" height="40" as="geometry" />
        </mxCell>
        <mxCell id="CcoabBQ-ILqMAUep1loV-3" value="CIEKAWE" style="text;html=1;align=center;verticalAlign=middle;whiteSpace=wrap;rounded=0;" parent="1" vertex="1">
          <mxGeometry x="370" y="220" width="60" height="20" as="geometry" />
        </mxCell>
        <mxCell id="CcoabBQ-ILqMAUep1loV-17" style="edgeStyle=orthogonalEdgeStyle;rounded=0;orthogonalLoop=1;jettySize=auto;html=1;exitX=0;exitY=0.5;exitDx=0;exitDy=0;entryX=1;entryY=0.5;entryDx=0;entryDy=0;" parent="1" source="CcoabBQ-ILqMAUep1loV-4" target="CcoabBQ-ILqMAUep1loV-12" edge="1">
          <mxGeometry relative="1" as="geometry" />
        </mxCell>
        <mxCell id="CcoabBQ-ILqMAUep1loV-4" value="" style="rounded=1;whiteSpace=wrap;html=1;fillColor=#ffcd28;strokeColor=#d79b00;gradientColor=#ffa500;" parent="1" vertex="1">
          <mxGeometry x="170" y="220" width="80" height="20" as="geometry" />
        </mxCell>
        <mxCell id="CcoabBQ-ILqMAUep1loV-5" value="" style="rounded=1;whiteSpace=wrap;html=1;fillColor=#6d8764;strokeColor=#3A5431;fontColor=#ffffff;" parent="1" vertex="1">
          <mxGeometry x="580" y="220" width="80" height="20" as="geometry" />
        </mxCell>
        <mxCell id="CcoabBQ-ILqMAUep1loV-6" value="" style="rounded=1;whiteSpace=wrap;html=1;fillColor=#b0e3e6;strokeColor=#0e8088;" parent="1" vertex="1">
          <mxGeometry x="170" y="340" width="80" height="20" as="geometry" />
        </mxCell>
        <mxCell id="CcoabBQ-ILqMAUep1loV-15" style="edgeStyle=orthogonalEdgeStyle;rounded=0;orthogonalLoop=1;jettySize=auto;html=1;exitX=0.5;exitY=0;exitDx=0;exitDy=0;entryX=0.5;entryY=1;entryDx=0;entryDy=0;" parent="1" source="CcoabBQ-ILqMAUep1loV-7" target="CcoabBQ-ILqMAUep1loV-8" edge="1">
          <mxGeometry relative="1" as="geometry" />
        </mxCell>
        <mxCell id="CcoabBQ-ILqMAUep1loV-7" value="Hiszpania" style="text;html=1;strokeColor=none;fillColor=none;align=center;verticalAlign=middle;whiteSpace=wrap;rounded=0;" parent="1" vertex="1">
          <mxGeometry x="190" y="220" width="40" height="20" as="geometry" />
        </mxCell>
        <mxCell id="CcoabBQ-ILqMAUep1loV-10" value="" style="rounded=1;whiteSpace=wrap;html=1;" parent="1" vertex="1">
          <mxGeometry x="170" y="160" width="80" height="20" as="geometry" />
        </mxCell>
        <mxCell id="CcoabBQ-ILqMAUep1loV-8" value="Jezyk" style="text;html=1;strokeColor=none;fillColor=none;align=center;verticalAlign=middle;whiteSpace=wrap;rounded=0;" parent="1" vertex="1">
          <mxGeometry x="190" y="160" width="40" height="20" as="geometry" />
        </mxCell>
        <mxCell id="CcoabBQ-ILqMAUep1loV-12" value="" style="rounded=1;whiteSpace=wrap;html=1;" parent="1" vertex="1">
          <mxGeometry x="30" y="220" width="80" height="20" as="geometry" />
        </mxCell>
        <mxCell id="CcoabBQ-ILqMAUep1loV-13" value="Geografia" style="text;html=1;strokeColor=none;fillColor=none;align=center;verticalAlign=middle;whiteSpace=wrap;rounded=0;" parent="1" vertex="1">
          <mxGeometry x="50" y="220" width="40" height="20" as="geometry" />
        </mxCell>
        <mxCell id="CcoabBQ-ILqMAUep1loV-23" style="edgeStyle=orthogonalEdgeStyle;rounded=0;orthogonalLoop=1;jettySize=auto;html=1;exitX=0.5;exitY=1;exitDx=0;exitDy=0;entryX=0.5;entryY=0;entryDx=0;entryDy=0;" parent="1" source="CcoabBQ-ILqMAUep1loV-18" target="CcoabBQ-ILqMAUep1loV-20" edge="1">
          <mxGeometry relative="1" as="geometry" />
        </mxCell>
        <mxCell id="CcoabBQ-ILqMAUep1loV-18" value="Podcasty" style="text;html=1;strokeColor=none;fillColor=none;align=center;verticalAlign=middle;whiteSpace=wrap;rounded=0;" parent="1" vertex="1">
          <mxGeometry x="190" y="340" width="40" height="20" as="geometry" />
        </mxCell>
        <mxCell id="CcoabBQ-ILqMAUep1loV-30" style="edgeStyle=orthogonalEdgeStyle;rounded=0;orthogonalLoop=1;jettySize=auto;html=1;exitX=0.5;exitY=0;exitDx=0;exitDy=0;entryX=0.5;entryY=1;entryDx=0;entryDy=0;" parent="1" source="CcoabBQ-ILqMAUep1loV-19" target="CcoabBQ-ILqMAUep1loV-27" edge="1">
          <mxGeometry relative="1" as="geometry" />
        </mxCell>
        <mxCell id="CcoabBQ-ILqMAUep1loV-19" value="Ksiazki" style="text;html=1;strokeColor=none;fillColor=none;align=center;verticalAlign=middle;whiteSpace=wrap;rounded=0;" parent="1" vertex="1">
          <mxGeometry x="600" y="220" width="40" height="20" as="geometry" />
        </mxCell>
        <mxCell id="CcoabBQ-ILqMAUep1loV-20" value="" style="rounded=1;whiteSpace=wrap;html=1;" parent="1" vertex="1">
          <mxGeometry x="170" y="430" width="80" height="30" as="geometry" />
        </mxCell>
        <mxCell id="CcoabBQ-ILqMAUep1loV-21" value="Yaron Brooks" style="text;html=1;strokeColor=none;fillColor=none;align=center;verticalAlign=middle;whiteSpace=wrap;rounded=0;" parent="1" vertex="1">
          <mxGeometry x="190" y="435" width="40" height="20" as="geometry" />
        </mxCell>
        <mxCell id="CcoabBQ-ILqMAUep1loV-31" style="edgeStyle=orthogonalEdgeStyle;rounded=0;orthogonalLoop=1;jettySize=auto;html=1;exitX=1;exitY=0.5;exitDx=0;exitDy=0;entryX=0.5;entryY=1;entryDx=0;entryDy=0;" parent="1" source="CcoabBQ-ILqMAUep1loV-24" target="CcoabBQ-ILqMAUep1loV-29" edge="1">
          <mxGeometry relative="1" as="geometry" />
        </mxCell>
        <mxCell id="CcoabBQ-ILqMAUep1loV-32" style="edgeStyle=orthogonalEdgeStyle;rounded=0;orthogonalLoop=1;jettySize=auto;html=1;exitX=0;exitY=0.5;exitDx=0;exitDy=0;entryX=0.5;entryY=1;entryDx=0;entryDy=0;" parent="1" source="CcoabBQ-ILqMAUep1loV-24" target="CcoabBQ-ILqMAUep1loV-28" edge="1">
          <mxGeometry relative="1" as="geometry" />
        </mxCell>
        <mxCell id="CcoabBQ-ILqMAUep1loV-24" value="" style="rounded=1;whiteSpace=wrap;html=1;" parent="1" vertex="1">
          <mxGeometry x="580" y="90" width="80" height="20" as="geometry" />
        </mxCell>
        <mxCell id="CcoabBQ-ILqMAUep1loV-25" value="" style="rounded=1;whiteSpace=wrap;html=1;" parent="1" vertex="1">
          <mxGeometry x="490" y="10" width="80" height="20" as="geometry" />
        </mxCell>
        <mxCell id="CcoabBQ-ILqMAUep1loV-26" value="" style="rounded=1;whiteSpace=wrap;html=1;" parent="1" vertex="1">
          <mxGeometry x="740" y="10" width="80" height="20" as="geometry" />
        </mxCell>
        <mxCell id="CcoabBQ-ILqMAUep1loV-27" value="Reportaze" style="text;html=1;strokeColor=none;fillColor=none;align=center;verticalAlign=middle;whiteSpace=wrap;rounded=0;" parent="1" vertex="1">
          <mxGeometry x="600" y="90" width="40" height="20" as="geometry" />
        </mxCell>
        <mxCell id="CcoabBQ-ILqMAUep1loV-28" value="Darknet" style="text;html=1;strokeColor=none;fillColor=none;align=center;verticalAlign=middle;whiteSpace=wrap;rounded=0;" parent="1" vertex="1">
          <mxGeometry x="510" y="10" width="40" height="20" as="geometry" />
        </mxCell>
        <mxCell id="CcoabBQ-ILqMAUep1loV-29" value="Czy jestes psychopata" style="text;html=1;strokeColor=none;fillColor=none;align=center;verticalAlign=middle;whiteSpace=wrap;rounded=0;" parent="1" vertex="1">
          <mxGeometry x="760" y="10" width="40" height="20" as="geometry" />
        </mxCell>
        <mxCell id="FvHZIAzcBwomUvP6vizH-10" style="edgeStyle=orthogonalEdgeStyle;rounded=0;orthogonalLoop=1;jettySize=auto;html=1;exitX=1;exitY=0.5;exitDx=0;exitDy=0;entryX=0;entryY=0.5;entryDx=0;entryDy=0;" parent="1" source="FvHZIAzcBwomUvP6vizH-1" target="FvHZIAzcBwomUvP6vizH-2" edge="1">
          <mxGeometry relative="1" as="geometry" />
        </mxCell>
        <mxCell id="FvHZIAzcBwomUvP6vizH-1" value="" style="rounded=1;whiteSpace=wrap;html=1;fillColor=#f5f5f5;strokeColor=#666666;fontColor=#333333;" parent="1" vertex="1">
          <mxGeometry x="580" y="280" width="80" height="20" as="geometry" />
        </mxCell>
        <mxCell id="FvHZIAzcBwomUvP6vizH-2" value="" style="rounded=1;whiteSpace=wrap;html=1;" parent="1" vertex="1">
          <mxGeometry x="740" y="280" width="80" height="20" as="geometry" />
        </mxCell>
        <mxCell id="FvHZIAzcBwomUvP6vizH-4" value="" style="rounded=1;whiteSpace=wrap;html=1;" parent="1" vertex="1">
          <mxGeometry x="580" y="340" width="80" height="20" as="geometry" />
        </mxCell>
        <mxCell id="FvHZIAzcBwomUvP6vizH-9" style="edgeStyle=orthogonalEdgeStyle;rounded=0;orthogonalLoop=1;jettySize=auto;html=1;exitX=0.5;exitY=1;exitDx=0;exitDy=0;entryX=0.5;entryY=0;entryDx=0;entryDy=0;" parent="1" source="FvHZIAzcBwomUvP6vizH-5" target="FvHZIAzcBwomUvP6vizH-6" edge="1">
          <mxGeometry relative="1" as="geometry" />
        </mxCell>
        <mxCell id="FvHZIAzcBwomUvP6vizH-5" value="Obejrzane" style="text;html=1;strokeColor=none;fillColor=none;align=center;verticalAlign=middle;whiteSpace=wrap;rounded=0;" parent="1" vertex="1">
          <mxGeometry x="600" y="280" width="40" height="20" as="geometry" />
        </mxCell>
        <mxCell id="FvHZIAzcBwomUvP6vizH-6" value="Seriale" style="text;html=1;strokeColor=none;fillColor=none;align=center;verticalAlign=middle;whiteSpace=wrap;rounded=0;" parent="1" vertex="1">
          <mxGeometry x="600" y="340" width="40" height="20" as="geometry" />
        </mxCell>
        <mxCell id="FvHZIAzcBwomUvP6vizH-7" value="Filmy" style="text;html=1;strokeColor=none;fillColor=none;align=center;verticalAlign=middle;whiteSpace=wrap;rounded=0;" parent="1" vertex="1">
          <mxGeometry x="760" y="280" width="40" height="20" as="geometry" />
        </mxCell>
        <mxCell id="vH-IX7zG1O_WucT4hjSr-6" style="edgeStyle=orthogonalEdgeStyle;rounded=0;orthogonalLoop=1;jettySize=auto;html=1;exitX=1;exitY=0.5;exitDx=0;exitDy=0;" edge="1" parent="1" source="vH-IX7zG1O_WucT4hjSr-1" target="vH-IX7zG1O_WucT4hjSr-3">
          <mxGeometry relative="1" as="geometry" />
        </mxCell>
        <mxCell id="vH-IX7zG1O_WucT4hjSr-1" value="" style="rounded=1;whiteSpace=wrap;html=1;fillColor=#ffcccc;strokeColor=#36393d;" vertex="1" parent="1">
          <mxGeometry x="580" y="560" width="80" height="20" as="geometry" />
        </mxCell>
        <mxCell id="vH-IX7zG1O_WucT4hjSr-2" value="Matma" style="text;html=1;strokeColor=none;fillColor=none;align=center;verticalAlign=middle;whiteSpace=wrap;rounded=0;" vertex="1" parent="1">
          <mxGeometry x="600" y="560" width="40" height="20" as="geometry" />
        </mxCell>
        <mxCell id="vH-IX7zG1O_WucT4hjSr-3" value="" style="rounded=1;whiteSpace=wrap;html=1;" vertex="1" parent="1">
          <mxGeometry x="740" y="560" width="80" height="20" as="geometry" />
        </mxCell>
        <mxCell id="vH-IX7zG1O_WucT4hjSr-4" value="Bayes" style="text;html=1;strokeColor=none;fillColor=none;align=center;verticalAlign=middle;whiteSpace=wrap;rounded=0;" vertex="1" parent="1">
          <mxGeometry x="760" y="560" width="40" height="20" as="geometry" />
        </mxCell>
      </root>
    </mxGraphModel>
  </diagram>
</mxfile>
